<svg xmlns="http://www.w3.org/2000/svg" width="254" height="66" fill="none" viewBox="0 0 254 66"><g clip-path="url(#a)"><path fill="#0278fe" d="M111 1.886C111 .844 111.895 0 113 0h28c1.105 0 2 .844 2 1.886v26.4c0 1.041-.895 1.885-2 1.885h-28c-1.105 0-2-.844-2-1.885z"/><path fill="#2a2c2f" d="M143 5.657h-32v1.886h32z"/><path fill="#2a2c2f" d="M124 5.657h-2v24.515h2z"/><path fill="#fff" d="m118.313 65.057.838-2.625h4.801l.838 2.625h4.262l-4.801-13.714h-5.398l-4.801 13.714zm1.733-5.41 1.449-4.527h.114l1.449 4.526zm10.407 5.41h3.949V60.53h1.363l2.557 4.527h4.29l-2.955-5.116c1.549-.703 2.472-2.036 2.472-3.937 0-2.92-2.166-4.661-5.398-4.661h-6.278zm3.949-7.42v-3.321h1.392c1.385 0 2.216.509 2.216 1.688 0 1.171-.831 1.634-2.216 1.634zm9.012-3.294h4.375v10.714h3.892V54.343h4.375v-3h-12.642zm27.559 1.527h3.991c-.305-2.753-2.954-4.715-6.392-4.715-3.92 0-7.102 2.545-7.102 7.072 0 4.339 2.884 7.018 7.131 7.018 3.807 0 6.534-2.197 6.534-5.947v-1.902h-6.449v2.652h2.642c-.035 1.192-.93 1.955-2.699 1.955-2.045 0-3.096-1.42-3.096-3.83 0-2.377 1.136-3.777 3.125-3.777 1.235 0 2.074.536 2.315 1.474m9.332 9.187.838-2.625h4.802l.838 2.625h4.261l-4.801-13.714h-5.398l-4.801 13.714zm1.733-5.41 1.449-4.527h.114l1.449 4.526zm10.407 5.41h9.83v-3h-5.881V51.343h-3.949zm11.426 0h9.829v-3h-5.88V51.343h-3.949zm11.426 0h10.454v-3h-6.506V59.7h5.995v-3h-5.995v-2.357h6.534v-3h-10.482zm12.441 0h3.949V60.53h1.363l2.557 4.527h4.29l-2.955-5.116c1.549-.703 2.472-2.036 2.472-3.937 0-2.92-2.166-4.661-5.398-4.661h-6.278zm3.949-7.42v-3.321h1.392c1.385 0 2.216.509 2.216 1.688 0 1.171-.831 1.634-2.216 1.634zm8.13-6.294 5.341 9.402v4.312h3.92v-4.312l5.341-9.402h-4.403l-2.841 5.571h-.114l-2.84-5.571zm-131.18 0v13.714h-3.295l-5.256-7.205h-.085v7.205h-3.949V51.343h3.352l5.171 7.178h.114v-7.178zM83.612 65.057V51.343h10.483v3H87.56V56.7h5.994v3H87.56v2.357h6.505v3zM69.484 54.343v-3h12.642v3H77.75v10.714h-3.892V54.343zM57.44 65.057V51.343h10.483v3h-6.534V56.7h5.994v3H61.39v2.357h6.505v3zm-11.426 0V51.343h3.948v10.714h5.881v3zm-13.125 0V51.343h6.278q1.62 0 2.834.602 1.215.603 1.89 1.695.674 1.091.674 2.551 0 1.474-.696 2.551-.69 1.08-1.94 1.661-1.242.583-2.904.583h-3.75v-2.893h2.955q.696 0 1.186-.228a1.73 1.73 0 0 0 .76-.663q.27-.429.27-1.011 0-.59-.27-1.005a1.66 1.66 0 0 0-.76-.642q-.49-.228-1.186-.228h-1.392v10.741zm-1.871-13.714v13.714h-3.95V51.343zM13.71 65.057V51.343h6.278q1.62 0 2.834.556 1.215.555 1.889 1.6.675 1.044.675 2.505 0 1.473-.696 2.484-.69 1.011-1.94 1.527-1.242.515-2.904.515h-3.75v-2.893h2.954q.697 0 1.186-.16.498-.167.76-.53.27-.36.27-.944 0-.589-.27-.957a1.5 1.5 0 0 0-.76-.55q-.49-.18-1.186-.18h-1.392v10.741zm8.522-6.295 3.637 6.295h-4.29l-3.551-6.295zm-22.65-4.419v-3h12.641v3H7.85v10.714H3.957V54.343z"/></g><defs><clipPath id="a"><path fill="#fff" d="M0 0h254v66H0z"/></clipPath></defs></svg>